<?xml version="1.0" encoding="utf-8"?>
<!-- Generator: Adobe Illustrator 27.9.0, SVG Export Plug-In . SVG Version: 6.00 Build 0)  -->
<svg version="1.1" id="Layer_1" xmlns="http://www.w3.org/2000/svg" xmlns:xlink="http://www.w3.org/1999/xlink" x="0px" y="0px"
	 viewBox="0 0 100 100" style="enable-background:new 0 0 100 100;" xml:space="preserve">
<g>
	<path d="M90.7,20.7l-35-19.2c-3.6-2-7.9-2-11.5,0l-35,19.2C5.4,22.8,3,26.8,3,31.2v37.6c0,4.4,2.4,8.4,6.2,10.5l35,19.2
		c1.8,1,3.8,1.5,5.8,1.5s4-0.5,5.7-1.5l35-19.2c3.8-2.1,6.2-6.1,6.2-10.5V31.2C96.9,26.8,94.5,22.8,90.7,20.7z M93,68.8
		c0,2.9-1.6,5.6-4.2,7L53.8,95c-2.4,1.3-5.3,1.3-7.7,0l-35-19.2c-2.5-1.4-4.1-4.1-4.1-7V31.2c0-2.9,1.5-5.6,4.1-7L46.1,5
		c1.3-0.7,2.6-1,3.9-1s2.6,0.3,3.8,1l35,19.2c2.6,1.4,4.2,4.1,4.2,7V68.8z"/>
	<path d="M16.5,41.4h43.2c4.3,0,7.8-3.5,7.8-7.8s-3.5-7.8-7.8-7.8s-7.8,3.5-7.8,7.8c0,1.1,0.9,2,2,2s2-0.9,2-2
		c0-2.1,1.7-3.8,3.8-3.8s3.8,1.7,3.8,3.8s-1.7,3.8-3.8,3.8H16.5c-1.1,0-2,0.9-2,2S15.4,41.4,16.5,41.4z"/>
	<path d="M32.3,44.9c-1.1,0-2,0.9-2,2s0.9,2,2,2h14.4c1.1,0,2-0.9,2-2s-0.9-2-2-2H32.3z"/>
	<path d="M77.6,32.3c-4.6,0-8.3,3.7-8.3,8.3c0,1.1,0.9,2,2,2s2-0.9,2-2c0-2.4,1.9-4.3,4.3-4.3s4.3,1.9,4.3,4.3
		c0,2.4-1.9,4.3-4.3,4.3H54.7c-1.1,0-2,0.9-2,2s0.9,2,2,2h22.9c4.6,0,8.3-3.7,8.3-8.3S82.2,32.3,77.6,32.3z"/>
	<path d="M28.4,59.8H16.5c-1.1,0-2,0.9-2,2s0.9,2,2,2h12c1.1,0,1.9-0.9,1.9-2S29.5,59.8,28.4,59.8z"/>
	<path d="M16.5,48.9h7.6c1.2,0,2-0.9,2-2s-0.9-2-2-2h-7.6c-1.1,0-2,0.9-2,2S15.4,48.9,16.5,48.9z"/>
	<path d="M53.7,59.8h-17c-1.1,0-2,0.9-2,2s0.9,2,2,2h17c2.1,0,3.8,1.7,3.8,3.8s-1.7,3.8-3.8,3.8s-3.8-1.7-3.8-3.8c0-1.1-0.9-2-2-2
		s-2,0.9-2,2c0,4.3,3.5,7.8,7.8,7.8s7.8-3.5,7.8-7.8S58,59.8,53.7,59.8z"/>
	<path d="M72.4,52.6H16.5c-1.1,0-2,0.9-2,2s0.9,2,2,2h55.9c2.4,0,4.3,1.9,4.3,4.3c0,2.4-1.9,4.3-4.3,4.3s-4.3-1.9-4.3-4.3
		c0-1.1-0.9-2-2-2s-2,0.9-2,2c0,4.6,3.7,8.3,8.3,8.3c4.6,0,8.3-3.7,8.3-8.3C80.7,56.3,77,52.6,72.4,52.6z"/>
</g>
</svg>
