<?xml version="1.0" encoding="utf-8"?>
<!-- Generator: Adobe Illustrator 27.9.0, SVG Export Plug-In . SVG Version: 6.00 Build 0)  -->
<svg version="1.1" id="Layer_1" xmlns="http://www.w3.org/2000/svg" xmlns:xlink="http://www.w3.org/1999/xlink" x="0px" y="0px"
	 viewBox="0 0 100 100" style="enable-background:new 0 0 100 100;" xml:space="preserve">
<g>
	<path d="M60,91.6L53.8,95c-2.4,1.3-5.3,1.3-7.7,0L11.7,76.1C8.8,74.5,7,71.4,7,68V32c0-3.4,1.8-6.5,4.7-8.1l14.9-8.2l-2.2,7.1
		c-0.3,1.1,0.2,2.2,1.3,2.5c0.2,0.1,0.4,0.1,0.6,0.1c0.9,0,1.7-0.6,1.9-1.4l3.7-11.8c0.2-0.7,0-1.4-0.4-1.9
		c-0.3-0.4-0.8-0.7-1.3-0.7L19,6c-1-0.4-2.2,0.2-2.5,1.3c-0.3,1,0.2,2.2,1.3,2.5l7.1,2.3L9.8,20.4C5.6,22.7,3,27.1,3,32v36
		c0,4.9,2.6,9.3,6.8,11.6l34.4,18.9c1.8,1,3.8,1.5,5.8,1.5s4-0.5,5.7-1.5l6.2-3.4c1-0.5,1.3-1.7,0.8-2.7S61,91.1,60,91.6z"/>
	<path d="M90.2,20.4L55.8,1.5c-3.7-2-8-2-11.6,0L38,4.9c-1,0.5-1.3,1.7-0.8,2.7s1.7,1.3,2.7,0.8L46.1,5c2.4-1.3,5.3-1.3,7.7,0
		l34.3,18.9c2.9,1.6,4.7,4.7,4.7,8.1v36.1c0,3.4-1.8,6.5-4.7,8.1l-14.8,8.2l2.2-7.1c0.3-1.1-0.2-2.2-1.3-2.5
		c-1.1-0.3-2.2,0.2-2.5,1.3l-3.6,11.5c-0.3,0.6-0.3,1.3,0,1.9c0.2,0.3,0.5,0.6,0.8,0.7c0.1,0.1,0.2,0.1,0.4,0.2l0.1,0c0,0,0,0,0,0
		l11.5,3.7c0.2,0.1,0.4,0.1,0.6,0.1c0.9,0,1.7-0.6,1.9-1.4c0.3-1-0.2-2.2-1.3-2.5L74.9,88l15.3-8.4C94.4,77.3,97,72.9,97,68V32
		C97,27.1,94.4,22.7,90.2,20.4z"/>
	<path d="M33.5,33.8l-0.9,0.9c-3,3-3.3,6.6-0.8,9.1c0.1,0.1,0.1,0.2,0.2,0.2c0.1,0.1,0.1,0.1,0.2,0.2c1.1,1.1,2.5,1.7,3.9,1.7
		c1.7,0,3.5-0.8,5-2.7l0.9-0.9c1.5,2.1,3.9,3.4,6.4,3.4c0.3,0,0.6,0,0.9,0c1.9-0.3,3.6-1.2,4.7-2.8c1.2-1.7,1.6-3.8,1.2-5.9
		c-0.3-1.6-1.5-3.3-2.9-4.8l0.7-0.7c0.8-0.8,1.3-1.7,1.6-2.6h6.1c1.1,0,2-0.9,2-2s-0.9-2-2-2h-6.4c-0.3-0.6-0.7-1.2-1.3-1.7
		l-0.3-0.3c-0.4-0.4-0.8-0.7-1.2-1v-6.1c0-1.1-0.9-2-2-2s-2,0.9-2,2v5.3c-1.2,0.2-2.2,0.9-3.1,1.8l-0.8,0.8
		c-1.5-1.3-3.1-2.5-4.6-2.8c-2.1-0.4-4.3,0-5.9,1.2c-1.6,1.1-2.6,2.8-2.8,4.7C30,29.4,31.3,32.1,33.5,33.8z M41,35.6L40.4,35
		c0.3-0.1,0.5-0.2,0.8-0.3C41.1,35,41.1,35.3,41,35.6z M35,41.4c-0.1-0.1-0.1-0.2-0.2-0.2c0,0-0.1-0.1-0.2-0.1
		c-0.5-0.5-0.6-1-0.4-1.6l2.3,2.3C36,42,35.5,41.8,35,41.4z M50.8,40.5c-0.4,0.5-1,1.1-2,1.2c-1.9,0.2-3.8-1.3-4.2-3.4
		c-0.2-1.1,0.9-3.6,2.2-5.7c2.2,1.8,4.3,4,4.5,5.1C51.5,38.7,51.4,39.7,50.8,40.5z M47.4,25.8c0.3-0.3,0.8-0.7,1.3-0.7
		s1,0.4,1.3,0.7l0.3,0.3c0.9,0.9,0.9,1.7,0,2.6l-0.4,0.4l-2.9-3L47.4,25.8z M35.5,25.3c0.6-0.4,1.3-0.6,2-0.6c0.2,0,0.5,0,0.7,0.1
		c1.2,0.2,3.4,2.3,5.2,4.5c-2.1,1.3-4.6,2.4-5.7,2.2c-2.1-0.4-3.6-2.3-3.4-4.2C34.5,26.2,35,25.6,35.5,25.3z"/>
	<path d="M33.3,80.8c1.1,0,2-0.9,2-2.1v-6.2c0.2,0,0.5,0.1,0.7,0.1c0.4,0,0.8-0.1,1.2-0.2c2.6-0.8,4.6-2.1,6.2-3.9
		c3.9-4.4,3.9-11.4,3.9-11.7c0-1.1-0.9-2-2-2c-0.3,0-6.5,0-10.5,4.5c-0.9-3.1-2.4-5.7-4.4-7.6c-5.4-5.5-14-5.5-14.4-5.5
		c-1.1,0-2,0.9-2,2c0,0.3,0,8.9,5.5,14.4c2.1,2.1,4.9,3.7,8.4,4.6c0.6,0.1,1.1,0.2,1.6,0.2c0.6,0,1.2-0.1,1.8-0.3c0,0.3,0,0.5,0,0.8
		v10.9C31.3,79.9,32.2,80.8,33.3,80.8z M37.7,62c1.6-1.8,3.8-2.6,5.4-2.9c-0.2,2-0.9,4.8-2.8,6.7c-1,1.2-2.5,2.1-4.3,2.7
		c0,0.1-0.2,0.1-0.4-0.1c-0.1-0.2-0.3-0.4-0.3-0.8v-0.5C35.8,65,36.6,63.2,37.7,62z M29,63.3c-2.8-0.7-5-1.9-6.6-3.6
		c-2.8-2.8-3.8-6.9-4.1-9.4c2.5,0.3,6.6,1.3,9.4,4.1c1.7,1.6,2.9,3.8,3.6,6.6c0.2,1-0.3,1.6-0.5,1.8C30.6,63.1,29.9,63.6,29,63.3z"
		/>
	<path d="M85.3,42.1c0.3,0,0.5,0,0.7,0l2.2,0.2V40c-0.1-4.9-3.7-9-8.4-9.7c-0.1,0-0.2,0-0.3,0s-0.2,0-0.3,0c-0.4,0-0.7,0-1.1,0
		s-0.9,0.1-1.4,0.1c-0.2,0-0.3,0-0.5,0c-0.5,0.1-0.9,0.1-1.3,0.2c-0.3,0-0.5,0.1-0.7,0.1c-0.3,0-0.6,0.1-0.9,0.2
		c-0.3,0-0.5,0.1-0.8,0.2c-0.2,0.1-0.3,0.1-0.5,0.2c-0.6,0.2-1.2,0.4-1.7,0.7l-0.2,0.1c-3.2,1.7-5.6,4-7.3,6.9
		c-0.2,0.2-0.4,0.4-0.5,0.6c-1.7,3.6-4,5.9-8.8,8.6l-3,1.7l3,1.7c1,0.6,2.1,1.1,3.1,1.5c-0.9,0.6-1.9,1.2-3.1,1.9l-3,1.7l3,1.7
		c2.7,1.6,5.7,2.4,8.8,2.4c2.5,0,5.1-0.5,7.5-1.5l0.5,1.7c0.2,0.8,1,1.4,1.9,1.4c0.2,0,0.4-0.1,0.6,0c1.1-0.3,1.7-1.4,1.4-2.5
		l-0.8-2.6c0.1,0,0.1-0.1,0.2-0.1l1,3.7c0.2,0.9,1,1.5,1.9,1.5c0.2,0,0.4-0.1,0.6-0.1c1.1-0.3,1.7-1.4,1.4-2.5L77,54.2
		c1.4-1.8,2.3-3.9,2.4-6.2C79.5,44.7,82.1,42.1,85.3,42.1z M71.9,35.4L71.9,35.4c0.5-0.2,1-0.4,1.5-0.6l0.3-0.1
		c0.2-0.1,0.4-0.1,0.6-0.2c0.2-0.1,0.5-0.1,0.7-0.2c0.2,0,0.3-0.1,0.5-0.1c0.4,0,0.7-0.1,1-0.1h0.4c0.6,0,1.2,0,1.8,0
		c2.2,0.2,4.1,1.7,4.9,3.8c-3.9,0.6-7,3.4-8.1,7.3c-2.3,2.6-7.7,4.5-11.9,4.9c0.3-1,0.5-2.2,0.7-3.5c0.2-1.6,0.6-3,1.2-4.3
		c0.1-0.3,0.3-0.5,0.4-0.8c0-0.1,0.1-0.1,0.1-0.2C67.7,38.1,70.2,36.3,71.9,35.4z M60,48.7c-0.1,0.4-0.2,0.7-0.4,1.1
		c-0.3-0.1-0.5-0.1-0.8-0.2C59.2,49.3,59.6,49,60,48.7z M62.2,56.7c-1.1,0-2.3-0.1-3.4-0.4c1-0.7,1.9-1.5,2.7-2.3c0.3,0,0.5,0,0.8,0
		c3.5,0,8.1-1.1,11.7-3C71.8,54.4,66.7,56.7,62.2,56.7z"/>
	<path d="M78.2,38.6c0.9,0,1.7-0.8,1.7-1.7s-0.8-1.7-1.7-1.7c-0.9,0-1.7,0.8-1.7,1.7C76.5,37.8,77.3,38.6,78.2,38.6z"/>
	<path d="M69.2,70.9c0.2,0.3,0.4,0.7,0.8,1.1c0.8,0.8,2,0.8,2.8,0c0.7-0.7,0.7-2,0-2.8c-0.1-0.1-0.2-0.3-0.3-0.4
		c-0.6-1-1.8-2.9-5.5-3.1c-0.4,0-0.7,0-1.1,0.1C65.6,65.3,65,65,64.4,65c-1.8-0.1-3.4,0.6-4.6,2c-1.8,2-2.7,5.3-2.3,8.5
		c0.1,0.7,0.6,1.3,1.3,1.6c-0.7,0-1.6-0.2-1.9-1c-0.8-2.4-3-3.9-5.5-3.7c-2.7,0.2-4.9,2.4-5.5,5.6c-0.2,1.1,0.5,2.1,1.6,2.3
		s2.1-0.5,2.3-1.6c0.3-1.6,1.2-2.2,1.9-2.3c0.7-0.1,1.2,0.3,1.4,1c0.8,2.6,3.2,3.7,5.5,3.7c0.5,0,1,0,1.7-0.2
		c2.7-0.6,4.2-2.7,3.9-5.3c-0.3-2,0.3-4.1,1.3-5.2c0.5-0.7,1.1-0.7,1.4-0.7C68.5,69.7,68.7,70.1,69.2,70.9z"/>
</g>
</svg>
