<?xml version="1.0" encoding="utf-8"?>
<!-- Generator: Adobe Illustrator 27.9.0, SVG Export Plug-In . SVG Version: 6.00 Build 0)  -->
<svg version="1.1" id="Your_Icon" xmlns="http://www.w3.org/2000/svg" xmlns:xlink="http://www.w3.org/1999/xlink" x="0px" y="0px"
	 viewBox="0 0 100 100" style="enable-background:new 0 0 100 100;" xml:space="preserve">
<g>
	<path d="M90.8,20.7l-35-19.2c-3.6-2-7.9-2-11.5,0l-35,19.2C5.4,22.8,3,26.8,3,31.2v37.6c0,4.4,2.4,8.4,6.2,10.5l35,19.2
		c1.8,1,3.8,1.5,5.8,1.5c2,0,4-0.5,5.8-1.5l35-19.2c3.8-2.1,6.2-6.1,6.2-10.5V31.2C97,26.8,94.6,22.8,90.8,20.7z M11.1,24.2L46.2,5
		c1.2-0.7,2.5-1,3.8-1c1.3,0,2.6,0.3,3.8,1l35,19.2c2.6,1.4,4.2,4.1,4.2,7v35.5l-7.5-5.4c-1.5-1-3.3-1.6-5.1-1.6H70
		c-1.5,0-3,0.6-4.1,1.7c-1,1-1.5,2.2-1.6,3.5l-7-4.4c-0.1-0.1-0.2-0.1-0.2-0.2c-1.1-0.6-2.4-0.8-3.6-0.6c-1.4,0.2-2.6,1-3.4,2.2
		c-0.8-1.1-2-1.9-3.4-2.2c-1.3-0.2-2.5,0-3.6,0.6c-0.1,0-0.2,0.1-0.2,0.2l-7,4.4c-0.1-1.3-0.7-2.6-1.6-3.5c-1.1-1.1-2.5-1.7-4.1-1.7
		H19.6c-1.8,0-3.6,0.5-5.2,1.6L7,66.7V31.2C7,28.3,8.6,25.6,11.1,24.2z M7.4,71.4l9.3-6.7c0.8-0.6,1.8-0.9,2.9-0.9H30
		c0.5,0,0.9,0.2,1.2,0.5s0.5,0.8,0.5,1.2l0,0.1c0,1-0.8,1.7-1.7,1.7h-6.8c-1.1,0-2,0.9-2,2s0.9,2,2,2h8.2c1,0,2-0.3,2.9-0.8L45,63.9
		c0.2-0.1,0.5-0.2,0.9-0.1c0.6,0.1,1.1,0.6,1.2,1.2c0.1,0.5-0.1,1.1-0.5,1.4L30.7,77.1c-0.8,0.5-1.8,0.8-2.8,0.8H15.2
		c-0.1,0-0.1,0-0.2,0l-3.9-2.1C9.4,74.8,8.1,73.2,7.4,71.4z M53.8,95c-2.4,1.3-5.3,1.3-7.7,0L22.3,81.9h5.7c1.8,0,3.5-0.5,5-1.5
		l15.9-10.6c0,0,0.1-0.1,0.1-0.1c0.4-0.3,0.7-0.7,1-1.1c0.3,0.4,0.6,0.8,1,1.1c0,0,0.1,0.1,0.1,0.1l15.9,10.6c1.5,1,3.2,1.5,5,1.5
		h5.7L53.8,95z M88.8,75.8L85,77.9c-0.1,0-0.1,0-0.2,0H72.1c-1,0-2-0.3-2.8-0.8L53.5,66.5c-0.4-0.3-0.6-0.9-0.5-1.4
		c0.1-0.6,0.6-1.1,1.2-1.2c0.4-0.1,0.7,0,0.9,0.1l10.6,6.6c0.9,0.5,1.9,0.8,2.9,0.8h8.2c1.1,0,2-0.9,2-2s-0.9-2-2-2H70
		c-1,0-1.7-0.8-1.7-1.7l0-0.1c0-0.5,0.2-0.9,0.5-1.2s0.8-0.5,1.2-0.5h10.4c1,0,2,0.3,2.8,0.9l9.3,6.7C91.9,73.2,90.6,74.8,88.8,75.8
		z"/>
	<path d="M58.2,34.3h2.9c0,0.4-0.1,0.7-0.1,1.1c0,5.4,4.4,9.8,9.8,9.8c5.4,0,9.8-4.4,9.8-9.8c0-0.4,0-0.7-0.1-1.1h2.5
		c1.1,0,2-0.9,2-2s-0.9-2-2-2h-2.6c-0.1-3.9-2.3-6.5-4.8-7.3c-1.9-0.6-3.6-0.2-4.6,0.2c-1-0.4-2.7-0.7-4.6-0.2
		c-2.5,0.7-4.7,3.4-4.8,7.3h-3.2c-1.1,0-2,0.9-2,2S57.1,34.3,58.2,34.3z M76.5,35.4c0,3.2-2.6,5.8-5.8,5.8c-3.2,0-5.8-2.6-5.8-5.8
		c0-0.4,0-0.8,0.1-1.1h11.3C76.5,34.7,76.5,35,76.5,35.4z M67.4,26.9c1.3-0.4,2.5,0.3,2.5,0.3c0.6,0.3,1.3,0.3,1.9,0
		c0,0,1.3-0.6,2.5-0.3c0.9,0.3,1.9,1.5,2,3.4H65.4C65.6,28.3,66.5,27.1,67.4,26.9z"/>
	<path d="M65.6,44.9c-3.3,0.8-6.4,4.5-5.4,9.6c0.2,1,1,1.6,2,1.6c0.1,0,0.2,0,0.4,0c1.1-0.2,1.8-1.3,1.6-2.3c-0.5-2.7,0.8-4.5,2.4-5
		c1.1-0.3,1.7-1.4,1.4-2.4C67.8,45.3,66.7,44.7,65.6,44.9z"/>
	<path d="M76.3,44.9c-1.1-0.3-2.2,0.4-2.4,1.5c-0.3,1.1,0.4,2.2,1.4,2.4c1.6,0.4,3,2.3,2.4,5c-0.2,1.1,0.5,2.1,1.5,2.4
		c0.1,0,0.3,0,0.4,0c0.9,0,1.8-0.6,2-1.6C82.7,49.5,79.7,45.8,76.3,44.9z"/>
	<path d="M10.7,58.8c0.4,0,0.8-0.1,1.1-0.3c5.8-3.7,12.3-3,18.5-2.2c5.3,0.6,10.2,1.2,14.7-0.7c1-0.4,1.5-1.6,1-2.6
		c-0.4-1-1.6-1.5-2.6-1c-3.5,1.5-7.9,1-12.7,0.4c-6.6-0.8-14.2-1.7-21.2,2.9c-0.9,0.6-1.2,1.8-0.6,2.8C9.4,58.5,10,58.8,10.7,58.8z"
		/>
	<path d="M10.7,52.5c0.4,0,0.8-0.1,1.1-0.3c5.8-3.7,12.3-3,18.5-2.2c5.3,0.6,10.2,1.2,14.7-0.7c1-0.4,1.5-1.6,1-2.6
		c-0.4-1-1.6-1.5-2.6-1c-3.5,1.5-7.9,1-12.7,0.4c-6.6-0.8-14.2-1.7-21.2,2.9c-0.9,0.6-1.2,1.8-0.6,2.8C9.4,52.2,10,52.5,10.7,52.5z"
		/>
	<path d="M23,43.9c3.6,0,6.5-2.1,6.5-4.8s-2.9-4.8-6.5-4.8s-6.5,2.1-6.5,4.8C16.5,41.8,19.3,43.9,23,43.9z M23,38.3
		c1.4,0,2.3,0.5,2.5,0.8c-0.2,0.3-1.1,0.8-2.5,0.8c-1.4,0-2.3-0.5-2.5-0.8C20.7,38.8,21.6,38.3,23,38.3z"/>
	<path d="M29.9,33.7c0,2.7,2.9,4.8,6.5,4.8s6.5-2.1,6.5-4.8s-2.9-4.8-6.5-4.8S29.9,31,29.9,33.7z M36.3,32.9c1.4,0,2.3,0.5,2.5,0.8
		c-0.2,0.3-1.1,0.8-2.5,0.8s-2.3-0.5-2.5-0.8C34.1,33.5,34.9,32.9,36.3,32.9z"/>
	<path d="M25.5,30.8c3.6,0,6.5-2.1,6.5-4.8s-2.9-4.8-6.5-4.8S19,23.3,19,26S21.9,30.8,25.5,30.8z M25.5,25.2c1.4,0,2.3,0.5,2.5,0.8
		c-0.2,0.3-1.1,0.8-2.5,0.8c-1.4,0-2.3-0.5-2.5-0.8C23.2,25.7,24.1,25.2,25.5,25.2z"/>
</g>
</svg>
