<?xml version="1.0" encoding="utf-8"?>
<!-- Generator: Adobe Illustrator 27.9.0, SVG Export Plug-In . SVG Version: 6.00 Build 0)  -->
<svg version="1.1" id="Layer_1" xmlns="http://www.w3.org/2000/svg" xmlns:xlink="http://www.w3.org/1999/xlink" x="0px" y="0px"
	 viewBox="0 0 100 100" style="enable-background:new 0 0 100 100;" xml:space="preserve">
<g>
	<path d="M90.7,20.7l-35-19.2c-3.6-2-7.9-2-11.5,0l-35,19.2C5.4,22.8,3,26.8,3,31.2v37.6c0,4.4,2.4,8.4,6.2,10.5l35,19.2
		c1.8,1,3.8,1.5,5.8,1.5s4-0.5,5.7-1.5l35-19.2c3.8-2.1,6.2-6.1,6.2-10.5V31.2C96.9,26.8,94.5,22.8,90.7,20.7z M92.9,68.8
		c0,2.9-1.5,5.6-4.1,7L53.8,95c-2.4,1.3-5.3,1.3-7.7,0l-35-19.2c-2.5-1.4-4.1-4.1-4.1-7V31.2c0-2.9,1.5-5.6,4.1-7L46.1,5
		c1.3-0.7,2.6-1,3.9-1s2.6,0.3,3.8,1l34.9,19.2c2.6,1.4,4.2,4.1,4.2,7C92.9,31.2,92.9,68.8,92.9,68.8z"/>
	<path d="M31.2,39.8c-5.3,0-9.7,4.4-9.7,9.7s4.3,9.7,9.7,9.7c2.6,0,5.1-1,6.8-2.9c0.8-0.8,0.8-2,0-2.8s-2-0.8-2.8,0
		c-1,1.1-2.5,1.7-4,1.7c-3.1,0-5.7-2.5-5.7-5.7c0-3.1,2.5-5.7,5.7-5.7c1.8,0,3.4,0.7,4.5,2.1c0.7,0.9,1.9,1,2.8,0.3s1-1.9,0.3-2.8
		C36.9,41.1,34.2,39.8,31.2,39.8z"/>
	<path d="M50.1,40.4c-5.2,0-9.4,4.2-9.4,9.4s4.2,9.4,9.4,9.4s9.4-4.2,9.4-9.4S55.3,40.4,50.1,40.4z M50.1,55.2c-3,0-5.4-2.4-5.4-5.4
		s2.4-5.4,5.4-5.4s5.4,2.4,5.4,5.4S53.1,55.2,50.1,55.2z"/>
	<path d="M76.6,46.4c0-3.4-3.2-6-7.5-6c-4.4,0-7.5,2.5-7.6,6c0,1.1,0.9,2,2,2s2-0.9,2-2c0-1.7,2.3-2.1,3.5-2.1c1.3,0,3.5,0.5,3.5,2
		c0,0.9-2.6,2.4-4.3,3.4c-3.1,1.8-6.7,3.9-6.7,7.5c0,1.1,0.9,2,2,2h10.8c1.1,0,2-0.9,2.1-1.9c0-1.1-0.9-2-2-2h-7.3
		c0.9-0.7,2.1-1.4,3.2-2C73.4,51.5,76.6,49.7,76.6,46.4z"/>
</g>
</svg>
